<svg width="300" height="43" viewBox="0 0 300 43" fill="none" xmlns="http://www.w3.org/2000/svg">
<path d="M64.8915 2.10815H77.1839C76.7686 6.01093 76.7686 12.4879 76.7686 18.6327C76.7686 18.6327 76.9348 36.7349 77.5162 40.3055H70.5394C68.7952 40.4716 67.1341 39.3921 66.6357 37.6483C63.3965 39.9734 59.4928 41.2189 55.423 41.1359C42.3001 41.1359 40.6389 34.3268 40.6389 27.3516V16.7228C40.6389 11.8236 40.3897 6.92434 39.8083 2.10815H47.2004C50.5227 2.10815 52.1838 4.1841 52.1838 7.50561V23.0337C52.1838 31.0883 53.7619 33.8286 60.4064 33.8286C62.2337 33.9116 63.9779 33.7455 65.7221 33.2473L65.3899 19.1309C65.3899 14.3147 65.2237 6.01093 64.8915 2.10815Z" fill="#5BC2DC"/>
<path d="M89.7253 40.3055C90.1406 36.3197 90.2236 23.0336 90.2236 23.0336C90.2236 16.8058 89.8084 5.01443 89.3931 1.77596H96.4529C98.7785 1.77596 100.44 2.77242 100.855 4.51621C103.928 2.19115 107.749 0.862549 111.652 0.862549C124.609 0.862549 126.519 8.83417 126.519 14.7298V25.5248C126.519 30.5901 126.769 35.5723 127.267 40.5546H119.875C116.47 40.5546 114.892 38.1465 114.892 34.7419V19.1308C114.892 12.9861 114.31 8.25291 106.669 8.25291C104.842 8.25291 103.097 8.50202 101.353 9.16632L101.436 22.9506C101.436 27.8498 101.436 32.583 101.852 40.3055H89.7253Z" fill="#5BC2DC"/>
<path d="M162.068 1.9418C164.476 1.9418 166.885 1.77572 169.211 1.52661C168.712 3.43648 168.131 5.26331 167.466 7.09014C166.47 9.24912 164.809 9.99646 159.659 9.99646H155.506V23.0334C155.506 27.8496 155.672 36.5685 156.088 40.4713H143.629C144.128 36.4855 144.211 27.8496 144.211 23.0334V9.99646H140.224C136.819 9.99646 134.078 10.2456 132.583 11.0759L132.417 6.17672C132.417 3.18737 132.998 1.9418 137.4 1.9418H162.068Z" fill="#5BC2DC"/>
<path d="M210.989 20.9575C210.989 33.8283 203.597 41.7999 190.225 41.7999C176.852 41.7999 170.125 34.4926 170.125 21.3727C170.125 8.25269 177.434 0.779297 190.723 0.779297C204.012 0.779297 210.989 8.00358 210.989 20.9575ZM181.504 21.1235C181.504 30.0086 184.66 33.9944 190.723 33.9944C196.62 33.9944 199.61 30.0086 199.61 21.1235C199.61 12.2385 196.62 8.08662 190.723 8.08662C184.66 8.08662 181.504 12.2385 181.504 21.1235Z" fill="#5BC2DC"/>
<path d="M252.932 42.5472C248.281 42.5472 247.201 40.8034 244.294 36.4855C242.716 34.1604 237.567 25.4414 236.653 23.6977C236.238 22.7842 236.072 22.1199 236.985 21.6217C240.806 19.3797 241.802 17.0546 241.802 14.3974C241.802 11.325 240.474 8.66783 236.072 8.66783C234.66 8.66783 233.331 8.8339 232.002 9.08301V22.0369C232.002 26.8531 232.168 36.3194 232.583 40.2222H220.623C221.038 36.4024 221.204 28.1817 221.204 22.0369C221.204 22.0369 221.121 5.42935 220.374 1.94177C226.105 1.94177 234.327 1.60962 237.982 1.60962C244.46 1.60962 253.098 2.93822 253.098 12.6536C253.181 16.4734 251.188 19.961 247.949 21.9539C247.367 22.369 247.367 22.7012 247.949 23.5316C252.018 29.8424 256.587 35.9042 261.57 41.4677C258.746 42.132 255.839 42.4642 252.932 42.5472Z" fill="#5BC2DC"/>
<path d="M284.66 29.1784C284.66 29.1784 284.826 37.8973 285.241 40.3885H272.949C273.447 37.8973 273.53 29.1784 273.53 29.1784C273.53 27.5176 273.115 25.9399 271.786 23.2827C269.045 17.7192 262.982 6.92425 257.833 2.10806C260.49 1.77591 263.231 1.69287 265.889 1.69287C270.623 1.69287 272.118 3.27059 273.198 5.26349C275.524 9.49842 277.6 13.8994 279.51 18.3835C281.338 13.9825 283.414 9.66449 285.657 5.42957C286.819 3.68578 288.397 1.77591 292.384 1.77591C294.793 1.77591 297.201 1.94198 299.61 2.1911C295.873 5.51261 288.813 17.47 285.906 22.9505C285.075 24.8604 284.577 27.0194 284.66 29.1784Z" fill="#5BC2DC"/>
<path d="M19.7915 16.8886C17.0506 16.0582 12.6486 14.8126 12.6486 11.4081C12.6486 8.00354 16.8015 7.42228 19.6254 7.42228C23.2799 7.33924 26.8513 8.33569 29.9244 10.2456V3.76862C29.9244 3.76862 27.1836 0.197998 19.044 0.197998C8.99411 0.197998 0.771484 4.18381 0.771484 12.1554C0.771484 20.127 6.58546 22.0369 10.4891 23.2825C14.0606 24.445 19.7084 25.7736 19.7084 29.3442C19.7084 33.8283 15.5556 33.9943 12.7317 33.9943C8.57883 33.9943 4.50904 33.0809 0.771484 31.1711V37.731C0.771484 37.731 1.60205 41.7169 13.3131 41.7169C22.1171 41.7169 31.7517 38.3953 31.5025 29.3442C31.3364 22.286 26.8513 19.0476 19.7915 16.8886Z" fill="#5BC2DC"/>
</svg>
